<?xml version="1.0" encoding="UTF-8" standalone="no"?><!DOCTYPE svg PUBLIC "-//W3C//DTD SVG 1.1//EN" "http://www.w3.org/Graphics/SVG/1.1/DTD/svg11.dtd"><svg width="100%" height="100%" viewBox="0 0 1568 1166" version="1.1" xmlns="http://www.w3.org/2000/svg" xmlns:xlink="http://www.w3.org/1999/xlink" xml:space="preserve" xmlns:serif="http://www.serif.com/" style="fill-rule:evenodd;clip-rule:evenodd;stroke-linejoin:round;stroke-miterlimit:2;"><path d="M811.382,547.691c-11.182,5.431 -19.599,15.684 -22.539,28.049l-318.668,-5.042c9.669,-2.661 33.032,-10.029 57.052,-24.612c31.414,-19.073 86.389,-59.463 130.706,-174.462c38.006,-98.623 42.593,-235.203 43.128,-272.098l110.321,448.165Z" style="fill:#58b78d;"/><path d="M870.158,574.296c-4.835,-17.521 -20.754,-30.464 -39.724,-30.795l-114.023,-463.203c1.617,-0.888 3.171,-1.878 4.652,-2.962c21.6,24.105 120.505,135.133 170.794,202.85c56.658,76.292 94.804,146.974 94.804,146.974c0,0 19.073,41.512 23.561,55.536c4.488,14.024 12.902,56.658 12.902,56.658l-0.3,0.505c-16.64,2.982 -29.89,15.793 -33.517,32.203l-119.149,2.234Z" style="fill:#c6d54e;"/><path d="M1170.19,670.793c7.44,6.727 17.3,10.826 28.11,10.826c23.147,0 41.939,-18.793 41.939,-41.939c0,-13.794 -6.673,-26.041 -16.962,-33.684c10.394,-13.276 23.709,-19.935 33.905,-22.462c14.399,-3.568 33.326,-3.745 61.599,5.231c28.273,8.975 57.996,24.275 86.335,38.757c20.119,10.281 56.31,30.612 80.658,44.435c-1.9,4.772 -2.945,9.978 -2.945,15.427c0,4.535 0.724,8.902 2.063,12.993c-31.486,17.103 -82.419,44.414 -98.323,50.867c-21.027,8.534 -139.03,72.235 -315.938,109.502c-132.652,27.943 -229.498,28.406 -259.247,27.717c-0.606,-3.562 -1.663,-6.972 -3.109,-10.167l0.126,0.281c19.926,-5.162 59.17,-15.554 87.804,-24.563c39.941,-12.566 82.574,-26.029 157.969,-73.599c59.569,-37.585 101.208,-89.458 116.064,-109.578l-0.048,-0.044Z" style="fill:#58b78d;"/><path d="M797.069,702.111c-46.789,18.061 -92.456,37.958 -136.806,56.763c-140.243,59.462 -157.6,66.859 -157.6,66.859l295.896,-212.104c3.644,4.025 8.056,7.341 13.004,9.715l-14.494,78.767Z" style="fill:#584c64;"/><path d="M1156.91,632.862c-21.524,-1.07 -74.234,-1.104 -166.802,13.707c-58.542,9.367 -115.896,26.82 -171.733,47.481l12.257,-66.608c19.9,-0.442 36.403,-14.763 40.204,-33.655l118.785,-2.227c4.639,18.114 21.083,31.52 40.633,31.52c16.629,0 31.01,-9.699 37.79,-23.742l89.434,30.679c-0.221,0.936 -0.411,1.885 -0.568,2.845Z" style="fill:#584c64;"/><path d="M678.541,699.608c-25.249,-24.851 -58.407,-48.008 -96.9,-70.499c-30.265,-17.683 -73.599,-31.017 -103.029,-38.774l310.24,4.908c1.661,6.961 5.058,13.251 9.708,18.386l-0.001,-0l-120.018,85.979Z" style="fill:#58b78d;"/><path d="M818.38,694.05c55.837,-20.661 113.191,-38.114 171.733,-47.481c92.568,-14.811 145.278,-14.777 166.802,-13.707c0,-0 -0.553,4.458 -0.553,6.818c0,12.36 5.359,23.478 13.878,31.156c-14.856,20.12 -56.495,71.994 -116.064,109.579c-75.395,47.57 -118.028,61.033 -157.969,73.599c-28.634,9.009 -67.878,19.401 -87.804,24.563c-4.032,-9.095 -11.209,-16.493 -20.149,-20.811l30.126,-163.716Z" style="fill:#408887;"/><path d="M769.187,853.626c-19.139,0.392 -35.146,13.638 -39.729,31.449c-21.789,-1.783 -74.561,-6.418 -116.878,-12.661c-39.689,-5.856 -88.752,-15.16 -112.743,-19.836c0.002,-0.138 0.002,-0.275 0.002,-0.412c0,-7.474 -1.956,-14.496 -5.382,-20.578l8.61,-6.143c3.385,-1.423 28.818,-12.139 157.196,-66.571c44.35,-18.805 90.017,-38.702 136.806,-56.763l-27.882,151.515Z" style="fill:#408887;"/><path d="M716.195,43.144c0,-11.089 -9.018,-20.13 -20.118,-20.13c-11.1,0 -20.117,9.041 -20.117,20.13c0,11.088 9.017,20.117 20.117,20.117c11.1,0 20.118,-9.029 20.118,-20.117" style="fill:#584c64;fill-rule:nonzero;"/><path d="M849.809,585.462c0,-11.088 -9.017,-20.106 -20.117,-20.106c-11.1,0 -20.129,9.018 -20.129,20.106c0,11.1 9.029,20.129 20.129,20.129c11.1,0 20.117,-9.029 20.117,-20.129" style="fill:#584c64;fill-rule:nonzero;"/><path d="M402.051,578.956c0,-11.088 -9.017,-20.106 -20.117,-20.106c-11.1,0 -20.129,9.018 -20.129,20.106c0,11.1 9.029,20.129 20.129,20.129c11.1,0 20.117,-9.029 20.117,-20.129" style="fill:#584c64;fill-rule:nonzero;"/><path d="M1544.75,687.39c0,-11.1 -9.018,-20.13 -20.118,-20.13c-11.112,0 -20.129,9.03 -20.129,20.13c0,11.088 9.017,20.117 20.129,20.117c11.1,0 20.118,-9.029 20.118,-20.117" style="fill:#584c64;fill-rule:nonzero;"/><path d="M1050.39,581.128c0,-11.088 -9.041,-20.105 -20.129,-20.105c-11.112,0 -20.129,9.017 -20.129,20.105c0,11.101 9.017,20.13 20.129,20.13c11.088,0 20.129,-9.029 20.129,-20.13" style="fill:#584c64;fill-rule:nonzero;"/><path d="M477.942,852.172c0,-11.088 -9.017,-20.129 -20.117,-20.129c-11.1,0 -20.129,9.041 -20.129,20.129c0,11.088 9.029,20.118 20.129,20.118c11.1,0 20.117,-9.03 20.117,-20.118" style="fill:#584c64;fill-rule:nonzero;"/><path d="M790.19,895.532c0,-11.088 -9.029,-20.117 -20.129,-20.117c-11.1,0 -20.13,9.029 -20.13,20.117c0,11.089 9.03,20.13 20.13,20.13c11.1,0 20.129,-9.041 20.129,-20.13" style="fill:#584c64;fill-rule:nonzero;"/><path d="M1218.42,639.674c0,-11.089 -9.029,-20.106 -20.129,-20.106c-11.1,0 -20.106,9.017 -20.106,20.106c0,11.088 9.006,20.117 20.106,20.117c11.1,0 20.129,-9.029 20.129,-20.117" style="fill:#584c64;fill-rule:nonzero;"/><g><path d="M40.376,1163.89l0,-96.394l32.735,0l0,-6.946l-73.111,0l0,6.946l32.735,0l0,96.394l7.641,0Zm55.411,0l0,-49.592l53.227,0l0,49.592l7.641,0l0,-103.34l-7.641,0l0,46.714l-53.227,0l0,-46.714l-7.641,0l0,103.34l7.641,0Zm122.356,1.216c11.747,0 20.331,-2.965 25.752,-8.857c5.408,-5.917 8.112,-15.17 8.112,-27.785l0,-67.914l-7.467,0l0,68.955c0,9.998 -2.072,17.305 -6.202,21.869c-4.143,4.578 -10.879,6.872 -20.195,6.872c-9.377,0 -16.138,-2.294 -20.281,-6.872c-4.13,-4.564 -6.202,-11.871 -6.202,-21.869l0,-68.955l-7.728,0l0,67.914c0,12.615 2.741,21.868 8.249,27.785c5.495,5.892 14.153,8.857 25.962,8.857m-16.063,-122.096c1.848,0 3.336,-0.558 4.465,-1.65c1.129,-1.116 1.7,-2.58 1.7,-4.441c0,-1.86 -0.571,-3.337 -1.7,-4.478c-1.129,-1.129 -2.617,-1.687 -4.465,-1.687c-1.861,0 -3.349,0.558 -4.478,1.687c-1.129,1.141 -1.687,2.618 -1.687,4.478c0,1.861 0.558,3.325 1.687,4.441c1.129,1.092 2.617,1.65 4.478,1.65m32.04,0c1.861,0 3.349,-0.558 4.478,-1.65c1.129,-1.116 1.687,-2.58 1.687,-4.441c0,-1.86 -0.558,-3.337 -1.687,-4.478c-1.129,-1.129 -2.617,-1.687 -4.478,-1.687c-1.848,0 -3.337,0.558 -4.465,1.687c-1.129,1.141 -1.7,2.618 -1.7,4.478c0,1.861 0.571,3.325 1.7,4.441c1.128,1.092 2.617,1.65 4.465,1.65m115.324,120.88l-34.298,-45.61c8.509,-1.725 14.922,-5.024 19.239,-9.899c4.304,-4.85 6.413,-11.214 6.289,-19.103c0,-19.847 -12.529,-29.77 -37.598,-29.77c-7.529,0 -15.431,0.657 -23.705,1.997l0,102.385l7.641,0l0,-44.569c2.829,0.311 6.947,0.435 12.33,0.435c3.176,0 5.905,-0.1 8.162,-0.335l33.343,44.469l8.597,0Zm-50.449,-50.634c-3.299,0 -7.294,-0.186 -11.983,-0.521l0,-45.413c5.086,-0.769 10.445,-1.128 16.064,-1.128c10.593,0 18.247,1.873 22.973,5.644c4.714,3.758 7.071,9.613 7.071,17.527c0,8.162 -2.717,14.203 -8.163,18.061c-5.445,3.895 -14.091,5.83 -25.962,5.83m75.654,-52.706l-7.653,0l0,103.34l7.653,0l0,-103.34Zm91.173,90.403l-55.063,-90.403l-8.076,0l0,103.34l7.381,0l0,-90.403l55.075,90.403l8.063,0l0,-103.34l-7.38,0l0,90.403Zm89.782,-37.263l0,43.167c-3.634,0.571 -7.603,0.868 -11.895,0.868c-9.217,0 -16.709,-1.438 -22.527,-4.316c-5.817,-2.853 -10.196,-7.592 -13.111,-14.228c-2.928,-6.624 -4.391,-15.58 -4.391,-26.88c0,-11.462 1.426,-20.579 4.292,-27.352c2.865,-6.773 7.008,-11.611 12.429,-14.464c5.408,-2.877 12.255,-4.291 20.529,-4.291c6.897,0 13.744,1.042 20.579,3.125l0,-7.206c-6.252,-1.861 -13.124,-2.791 -20.666,-2.791c-14.699,0 -25.925,4.13 -33.653,12.416c-7.728,8.274 -11.573,21.807 -11.573,40.563c0,12.677 1.799,22.873 5.408,30.576c3.622,7.704 8.956,13.261 16.027,16.659c7.058,3.424 16.001,5.123 26.83,5.123c6.314,0 12.715,-0.595 19.202,-1.811l0,-49.158l-7.48,0Zm39.955,0.695l42.2,-0l0,-6.86l-42.2,-0l0,-40.116l49.047,-0l0,-6.859l-56.688,-0l0,103.34l57.395,-0l0,-6.872l-49.754,-0l0,-42.633Zm130.097,36.568l-55.063,-90.403l-8.075,-0l0,103.34l7.38,-0l0,-90.403l55.051,90.403l8.075,-0l0,-103.34l-7.368,-0l0,90.403Z" style="fill:#408887;fill-rule:nonzero;"/><path d="M74.179,849.053l-74.178,0l0,147.575l8.869,-0l0,-71.387l56.242,0l-0,-8.274l-56.242,0l-0,-59.64l65.309,0l0,-8.274Zm47.36,148.667c14.427,0 26.434,-2.58 36.047,-7.728c9.601,-5.148 16.87,-13.248 21.783,-24.275c4.924,-11.028 7.38,-25.33 7.38,-42.882c0,-25.578 -5.148,-44.52 -15.456,-56.775c-10.308,-12.268 -25.925,-18.396 -46.863,-18.396c-8.51,0 -18.086,0.893 -28.717,2.692l0,145.863c10.507,1.005 19.116,1.501 25.826,1.501m0.794,-8.274c-6.376,0 -12.293,-0.298 -17.738,-0.893l0,-131.226c7.443,-0.992 14.054,-1.488 19.835,-1.488c12.23,0 22.241,2.307 30.018,6.921c7.778,4.639 13.558,11.871 17.341,21.696c3.796,9.836 5.682,22.637 5.682,38.379c0,15.952 -2.01,28.815 -6.029,38.602c-4.019,9.775 -10.072,16.87 -18.147,21.323c-8.076,4.466 -18.396,6.686 -30.962,6.686m154.348,-22.142l-50.052,-118.251l-10.171,0l0,147.575l8.484,-0l0,-130.407l47.062,110.362l8.969,-0l47.062,-111.081l0,131.126l8.472,-0l0,-147.575l-10.159,0l-49.667,118.251Z" style="fill:#58b78d;fill-rule:nonzero;"/></g></svg>